<?xml version="1.0" encoding="utf-8"?>
<!-- Generator: Adobe Illustrator 16.0.0, SVG Export Plug-In . SVG Version: 6.00 Build 0)  -->
<svg version="1.2" baseProfile="tiny" id="Layer_1" xmlns="http://www.w3.org/2000/svg" xmlns:xlink="http://www.w3.org/1999/xlink"
	 x="0px" y="0px" width="165px" height="35px" viewBox="0 0 165 35" xml:space="preserve">
<g>
	<path fill="#636467" d="M0.8,24V10.2h8.7c2.3,0.1,3.7,0.1,4.2,0.2s0.9,0.3,1.3,0.6c0.7,0.6,1.1,1.7,1.1,3.5c0,0.9-0.1,1.7-0.2,2.2
		c-0.2,0.5-0.4,1-0.8,1.3c-0.4,0.3-0.8,0.5-1.2,0.7c-0.4,0.1-1.1,0.2-2,0.2c-0.2,0-1,0-2.4,0H2.6V24H0.8z M2.6,17.2h6.9
		c1.7,0,2.7,0,3.1-0.1c0.4,0,0.8-0.2,1-0.4c0.4-0.3,0.6-1,0.6-2.2c0-0.7,0-1.2-0.1-1.5s-0.2-0.5-0.4-0.7c-0.3-0.2-0.6-0.3-1-0.4
		c-0.4-0.1-1.5-0.1-3.2-0.1H2.6V17.2z"/>
	<path fill="#636467" d="M17.4,24V10.2H26c2.3,0,3.8,0.1,4.4,0.2c1.1,0.2,1.9,0.7,2.4,1.5c0.3,0.6,0.4,1.4,0.4,2.5
		c0,1.3-0.2,2.1-0.5,2.6c-0.3,0.5-0.9,0.8-1.8,1c0.6,0.1,1.1,0.3,1.4,0.7c0.3,0.3,0.4,0.6,0.5,1C33,20.1,33,20.9,33,22v2h-1.8v-1.3
		c0-1.2,0-2-0.1-2.3c-0.1-0.9-0.6-1.4-1.5-1.5c-0.4-0.1-1.6-0.1-3.6-0.1h-6.8V24H17.4z M19.3,17.1H26h1.7c1.1,0,1.9-0.1,2.4-0.2
		s0.8-0.4,1-0.7c0.2-0.4,0.3-1,0.3-1.8c0-1-0.2-1.7-0.7-2c-0.3-0.2-0.7-0.3-1.3-0.4c-0.6-0.1-1.7-0.1-3.4-0.1h-6.8V17.1z"/>
	<path fill="#636467" d="M43.8,10.2c2.4,0,4,0.1,5,0.2s1.7,0.4,2.1,0.9c0.5,0.5,0.8,1.4,1,2.7c0.1,0.8,0.1,1.9,0.1,3.1
		c0,1.7-0.1,3-0.2,3.8c-0.2,0.9-0.4,1.5-0.8,1.9c-0.4,0.4-1.1,0.7-2,0.9S46.5,24,44.4,24c-3.7,0-6.1-0.1-7.1-0.3
		c-0.6-0.1-1.1-0.4-1.5-0.8c-0.4-0.4-0.7-0.9-0.8-1.4c-0.2-0.8-0.3-2.3-0.3-4.4c0-1.8,0.1-3.2,0.3-4.1c0.2-0.9,0.5-1.5,1.1-1.9
		c0.4-0.3,0.8-0.5,1.2-0.6c0.4-0.1,1.1-0.2,2.1-0.3C40.7,10.2,42.2,10.2,43.8,10.2z M42.7,11.8c-1.7,0-3,0.1-3.8,0.2
		s-1.3,0.3-1.6,0.5c-0.5,0.4-0.7,1.9-0.7,4.4c0,1.5,0,2.6,0.1,3.3c0.1,0.7,0.2,1.2,0.5,1.4c0.3,0.3,1.1,0.6,2.5,0.6
		c1.2,0.1,2.6,0.1,4,0.1c2.2,0,3.9-0.1,4.9-0.3c0.8-0.1,1.2-0.6,1.4-1.4c0.2-0.9,0.2-2.1,0.2-3.5c0-1.9-0.1-3.1-0.2-3.8
		c-0.1-0.8-0.6-1.2-1.6-1.3C47.5,11.9,45.6,11.8,42.7,11.8z"/>
	<path fill="#636467" d="M64.1,10.2h1.8v7.1c0,1.7,0,2.8-0.1,3.3c0,0.5-0.1,0.9-0.2,1.3c-0.2,0.6-0.6,1.1-1,1.4
		c-0.5,0.3-1.1,0.5-2,0.6c-0.9,0.1-2.2,0.2-4,0.2c-1.5,0-2.6-0.1-3.3-0.2c-0.8-0.2-1.3-0.4-1.7-0.8c-0.3-0.4-0.5-0.8-0.6-1.3
		c-0.1-0.5-0.2-1.4-0.2-2.7h1.7v0.5c0,1,0.1,1.7,0.3,2s0.5,0.6,0.9,0.8c0.5,0.2,1.6,0.2,3.3,0.2c0.6,0,1.6,0,2.9-0.1
		c0.6,0,1.1-0.1,1.3-0.3c0.3-0.2,0.5-0.4,0.6-0.7c0.1-0.3,0.2-0.6,0.2-1.1s0-1.4,0-2.9V10.2z"/>
	<path fill="#636467" d="M67.8,24V10.2h13.5v1.6H69.7V16h11.2v1.6H69.7v4.7h11.7V24H67.8z"/>
	<path fill="#636467" d="M96.7,19.3h1.8c-0.1,1.3-0.1,2.2-0.2,2.7c-0.1,0.4-0.3,0.8-0.6,1.1c-0.4,0.4-1,0.6-1.9,0.8
		C94.9,24,93.4,24,91.3,24c-2.7,0-4.6-0.1-5.6-0.2s-1.7-0.4-2.2-0.9c-0.4-0.4-0.7-1-0.8-1.9c-0.2-0.8-0.2-2.1-0.2-3.8
		c0-1.9,0.1-3.3,0.3-4.3c0.2-0.9,0.5-1.6,1-2c0.3-0.3,0.7-0.5,1.2-0.6c0.5-0.1,1.2-0.2,2.3-0.3c1-0.1,2.2-0.1,3.8-0.1
		c2.1,0,3.6,0.1,4.6,0.2s1.6,0.5,2,0.9c0.3,0.3,0.5,0.7,0.6,1c0.1,0.4,0.1,1.2,0.2,2.4h-1.7v-0.5c0-0.7-0.1-1.2-0.2-1.4
		c-0.1-0.3-0.4-0.5-0.8-0.7c-0.7-0.3-2.3-0.4-4.7-0.4c-3.4,0-5.3,0.2-5.9,0.6c-0.5,0.4-0.8,1.8-0.8,4.2c0,1.5,0.1,2.9,0.2,4
		c0.1,0.5,0.3,0.9,0.5,1.2c0.3,0.2,0.7,0.4,1.3,0.4c1,0.1,2.5,0.2,4.5,0.2c2.1,0,3.5-0.1,4.3-0.2c0.7-0.1,1.1-0.3,1.4-0.6
		c0.2-0.3,0.3-0.9,0.3-1.7L96.7,19.3z"/>
	<path fill="#636467" d="M99,10.2h15.7v1.6h-6.9V24h-1.8V11.8H99V10.2z"/>
	<path fill="#69B2E2" d="M115.7,24V10.2h12.9v1.6h-11.1v4.4h10.6v1.6h-10.6V24H115.7z"/>
	<path fill="#69B2E2" d="M129.6,10.2h1.8V24h-1.8V10.2z"/>
	<path fill="#69B2E2" d="M133.5,24V10.2h12.9v1.6h-11.1v4.4H146v1.6h-10.6V24H133.5z"/>
	<path fill="#69B2E2" d="M156.3,10.2c2.4,0,4,0.1,5,0.2c1,0.2,1.7,0.4,2.1,0.9c0.5,0.5,0.8,1.4,1,2.7c0.1,0.8,0.1,1.9,0.1,3.1
		c0,1.7-0.1,3-0.2,3.8c-0.2,0.9-0.4,1.5-0.8,1.9c-0.4,0.4-1.1,0.7-2,0.9S159,24,156.9,24c-3.7,0-6.1-0.1-7.1-0.3
		c-0.6-0.1-1.1-0.4-1.5-0.8c-0.4-0.4-0.7-0.9-0.8-1.4c-0.2-0.8-0.3-2.3-0.3-4.4c0-1.8,0.1-3.2,0.3-4.1s0.5-1.5,1.1-1.9
		c0.4-0.3,0.8-0.5,1.2-0.6c0.4-0.1,1.1-0.2,2.1-0.3C153.3,10.2,154.7,10.2,156.3,10.2z M155.2,11.8c-1.7,0-3,0.1-3.8,0.2
		c-0.8,0.1-1.3,0.3-1.6,0.5c-0.5,0.4-0.7,1.9-0.7,4.4c0,1.5,0,2.6,0.1,3.3c0.1,0.7,0.2,1.2,0.5,1.4c0.3,0.3,1.1,0.6,2.5,0.6
		c1.2,0.1,2.6,0.1,4,0.1c2.2,0,3.9-0.1,4.9-0.3c0.8-0.1,1.2-0.6,1.4-1.4c0.2-0.9,0.2-2.1,0.2-3.5c0-1.9-0.1-3.1-0.2-3.8
		c-0.1-0.8-0.6-1.2-1.6-1.3C160,11.9,158.1,11.8,155.2,11.8z"/>
</g>
<g>
</g>
<g>
</g>
<g>
</g>
<g>
</g>
<g>
</g>
<g>
</g>
<g>
</g>
<g>
</g>
<g>
</g>
<g>
</g>
<g>
</g>
<g>
</g>
<g>
</g>
<g>
</g>
<g>
</g>
<g>
</g>
</svg>
